<svg
        t="1732601240291"
        class="icon"
        viewBox="0 0 1024 1024"
        version="1.1"
        xmlns="http://www.w3.org/2000/svg"
        p-id="7417"
        width="256"
        height="256"
>
    <path
            d="M256 768a25.7024 25.7024 0 0 1-18.1248-7.4752l-204.8-204.8a25.6 25.6 0 0 1 0-36.1984l204.8-204.8a25.6 25.6 0 0 1 36.1984 36.1984L87.3984 537.6l186.6752 186.6752a25.6 25.6 0 0 1-18.1248 43.6736zM768 768a25.6 25.6 0 0 1-18.1248-43.6736l186.6752-186.6752-186.6752-186.6752a25.6 25.6 0 0 1 36.1984-36.1984l204.8 204.8a25.6 25.6 0 0 1 0 36.1984l-204.8 204.8a25.4976 25.4976 0 0 1-18.1248 7.4752zM384 768a25.6 25.6 0 0 1-21.7088-39.168l256-409.6a25.6 25.6 0 0 1 43.4176 27.136l-256 409.6A25.6 25.6 0 0 1 384 768z"
            fill="#e6e6e6"
            p-id="7418"
            data-spm-anchor-id="a313x.search_index.0.i7.3c6c3a811zbuEN"
            class="selected"
    ></path>
</svg>